# xmcd
#
# Track frame offsets: 
#        150
#        18578
#        32082
#        52353
#        73431
#        98350
#        115103
#        132098
#        156150
#        176285
#        197803
#        214742
#        236164
#        255867
#        273884
#        298545
#
# Disc length: 4300 seconds
#
# Revision: 1
# Processed by: cddbd v1.5.2PL0 Copyright (c) Steve Scherf et al.
# Submitted via: ExactAudioCopy v0.95b4
#
DISCID=e510ca10
DTITLE=Tina Turner - All The Best [CD 1)
DYEAR=2004
DGENRE=Blues
TTITLE0=Open Arms
TTITLE1=Nutbush City Limits
TTITLE2=What You Get Is What You Want
TTITLE3=Missing You
TTITLE4=The Best
TTITLE5=River Deep Mountain High
TTITLE6=When The Heartache Is Over
TTITLE7=Let's Stay Together
TTITLE8=I Don't Wanna Fight
TTITLE9=Whatever You Need
TTITLE10=I Can't Stand The Rain
TTITLE11=Goldeneye
TTITLE12=I Don't Wanna Lose You
TTITLE13=Great Spirits
TTITLE14=Proud Mary
TTITLE15=Addicted To Love
EXTD=
EXTT0=
EXTT1=
EXTT2=
EXTT3=
EXTT4=
EXTT5=
EXTT6=
EXTT7=
EXTT8=
EXTT9=
EXTT10=
EXTT11=
EXTT12=
EXTT13=
EXTT14=
EXTT15=
PLAYORDER=
